<mxfile host="app.diagrams.net" modified="2023-04-21T06:29:21.693Z" agent="Mozilla/5.0 (Windows NT 10.0; Win64; x64) AppleWebKit/537.36 (KHTML, like Gecko) Chrome/112.0.0.0 Safari/537.36 Edg/112.0.1722.48" version="21.2.1" etag="yePcCqu-h_DqKdf2eIDm" type="github">
  <diagram name="第 1 页" id="eGFgUKJ97gLsY5K9XayQ">
    <mxGraphModel>
      <root>
        <mxCell id="0" />
        <mxCell id="1" parent="0" />
      </root>
    </mxGraphModel>
  </diagram>
</mxfile>
